<svg version="1.0" xmlns="http://www.w3.org/2000/svg" width="76" height="76" viewBox="0 0 57 57"><path d="M18 8.7c-15.2 8-16.1 29.8-1.6 38.7 14.9 9.3 33.3-.3 34.4-17.8C51.9 12.1 33.7.5 18 8.7zm9 2.8c0 .8-.9 1.5-2 1.5s-2-.7-2-1.5.9-1.5 2-1.5 2 .7 2 1.5zm9.9-.1 2.4 1.3-2.6 2.3c-3.3 2.9-3.8 6.7-.7 5 2.7-1.4 7.2-.2 6.8 1.9-.3 1.2-1.5 1.6-5.3 1.6-4.2 0-5.1.4-6.4 2.6-1.3 2.3-1.3 2.8.5 5.2 1 1.5 2.9 2.7 4.1 2.7 3.9 0 4.7 3.5 2.1 8.3-2 3.7-2.8 4.2-6.2 4.5-6.1.5-8.6-1.3-8.6-6.2 0-5.1-4.8-10.6-9.2-10.6-4.4 0-3.4-2.6 2.2-6.1 3.2-2 5-3.8 5-5 0-2.1 2.9-2.6 4.6-.9 2.1 2.1 4.4 0 4.4-4.1 0-3.4.3-3.9 2.3-3.9 1.2.1 3.3.7 4.6 1.4z"/></svg>