<svg version="1.0" xmlns="http://www.w3.org/2000/svg"
 width="57.000000pt" height="57.000000pt" viewBox="0 0 57.000000 57.000000"
 preserveAspectRatio="xMidYMid meet">

<g transform="translate(0.000000,57.000000) scale(0.100000,-0.100000)"
fill="#000000" stroke="none">
<path d="M180 483 c-152 -80 -161 -298 -16 -387 149 -93 333 3 344 178 11 175
-171 291 -328 209z m90 -28 c0 -8 -9 -15 -20 -15 -11 0 -20 7 -20 15 0 8 9 15
20 15 11 0 20 -7 20 -15z m99 1 l24 -13 -26 -23 c-33 -29 -38 -67 -7 -50 27
14 72 2 68 -19 -3 -12 -15 -16 -53 -16 -42 0 -51 -4 -64 -26 -13 -23 -13 -28
5 -52 10 -15 29 -27 41 -27 39 0 47 -35 21 -83 -20 -37 -28 -42 -62 -45 -61
-5 -86 13 -86 62 0 51 -48 106 -92 106 -44 0 -34 26 22 61 32 20 50 38 50 50
0 21 29 26 46 9 21 -21 44 0 44 41 0 34 3 39 23 39 12 -1 33 -7 46 -14z"/>
</g>
</svg>
